<?xml version="1.0" encoding="UTF-8"?>
<!DOCTYPE svg PUBLIC "-//W3C//DTD SVG 1.1//EN" "http://www.w3.org/Graphics/SVG/1.1/DTD/svg11.dtd">
<svg xmlns="http://www.w3.org/2000/svg" version="1.1" width="600px" height="846px" style="shape-rendering:geometricPrecision; text-rendering:geometricPrecision; image-rendering:optimizeQuality; fill-rule:evenodd; clip-rule:evenodd" xmlns:xlink="http://www.w3.org/1999/xlink">
<g><path style="opacity:0.896" fill="#fbfbfc" d="M 295.5,23.5 C 386.395,77.7149 477.061,132.382 567.5,187.5C 568.667,345.832 568.833,504.166 568,662.5C 478.674,716.543 388.174,771.209 296.5,826.5C 206.313,772.575 115.479,717.908 24,662.5C 23.8326,504.597 23.3326,346.764 22.5,189C 113.677,133.961 204.677,78.7944 295.5,23.5 Z"/></g>
<g><path style="opacity:1" fill="#032554" d="M 295.5,33.5 C 383.444,86.4774 471.444,139.477 559.5,192.5C 560.833,347.5 560.833,502.5 559.5,657.5C 471.962,710.767 384.295,763.767 296.5,816.5C 208.122,763.893 119.956,710.893 32,657.5C 31.1667,502.499 31.3333,347.499 32.5,192.5C 120.396,139.726 208.063,86.7256 295.5,33.5 Z"/></g>
<g><path style="opacity:1" fill="#fccb08" d="M 334.5,123.5 C 334.5,123.833 334.5,124.167 334.5,124.5C 317.085,133.096 307.251,147.096 305,166.5C 302.467,170.028 299.634,173.194 296.5,176C 300.501,182.473 305.668,183.306 312,178.5C 317.423,179.138 322.756,180.138 328,181.5C 330.256,181.453 331.756,180.453 332.5,178.5C 333.338,178.842 333.672,179.508 333.5,180.5C 326.86,189.16 318.193,194.827 307.5,197.5C 301.87,198.292 296.203,198.625 290.5,198.5C 288.708,198.634 287.042,198.301 285.5,197.5C 283.485,196.076 281.152,195.41 278.5,195.5C 270.394,192.444 263.727,187.444 258.5,180.5C 258.369,179.761 258.536,179.094 259,178.5C 260.182,180.357 261.849,181.357 264,181.5C 268.919,180.13 273.919,179.13 279,178.5C 281.778,180.05 284.778,181.05 288,181.5C 289.167,181.333 290.333,181.167 291.5,181C 292.901,179.323 294.235,177.656 295.5,176C 287.542,169.088 283.375,160.255 283,149.5C 276.976,138.31 268.476,129.644 257.5,123.5C 272.634,104.895 291.634,99.7283 314.5,108C 322.54,111.506 329.207,116.672 334.5,123.5 Z"/></g>
<g><path style="opacity:1" fill="#d31342" d="M 387.5,175.5 C 392.436,175.311 396.602,176.977 400,180.5C 399.642,177.506 397.808,175.673 394.5,175C 392.19,174.503 389.857,174.337 387.5,174.5C 379.528,173.226 375.862,168.559 376.5,160.5C 376.631,159.624 376.298,158.957 375.5,158.5C 374.52,161.086 374.187,163.753 374.5,166.5C 374.389,167.117 374.056,167.617 373.5,168C 367.175,168.5 360.842,168.666 354.5,168.5C 354.657,167.127 354.49,165.793 354,164.5C 352,168.5 349,171.5 345,173.5C 343.95,177.681 345.617,180.014 350,180.5C 352.071,179.225 353.571,177.391 354.5,175C 356.902,174.186 359.235,174.353 361.5,175.5C 358.746,178.251 356.079,181.085 353.5,184C 351.833,184.667 350.167,184.667 348.5,184C 344.685,182.091 340.685,180.758 336.5,180C 335.934,179.005 335.267,178.172 334.5,177.5C 334.018,176.584 333.685,175.584 333.5,174.5C 334.685,172.289 335.685,169.955 336.5,167.5C 337.5,166.167 338.5,166.167 339.5,167.5C 336.738,170.619 336.238,173.952 338,177.5C 338.746,173.567 340.246,169.9 342.5,166.5C 340.578,165.289 338.745,163.956 337,162.5C 336.64,160.392 335.973,158.392 335,156.5C 334.275,159.377 334.775,162.043 336.5,164.5C 333.443,165.133 330.443,165.466 327.5,165.5C 328.651,167.809 329.984,169.976 331.5,172C 330.678,174.434 330.344,176.934 330.5,179.5C 325.253,178.391 319.92,177.558 314.5,177C 313.975,176.308 313.308,175.808 312.5,175.5C 309.73,178.471 306.397,179.638 302.5,179C 306.218,176.541 308.884,173.208 310.5,169C 310.167,168.833 309.833,168.667 309.5,168.5C 307.292,171.054 304.959,173.554 302.5,176C 301.167,176.667 299.833,176.667 298.5,176C 301.968,173.876 304.635,171.043 306.5,167.5C 308.719,161.678 310.219,155.678 311,149.5C 317.026,139.642 324.859,131.642 334.5,125.5C 336.857,125.337 339.19,125.503 341.5,126C 345.682,129.09 350.349,131.09 355.5,132C 357.061,132.941 358.395,134.108 359.5,135.5C 363.023,136.142 366.356,137.308 369.5,139C 373.772,143.58 379.105,145.914 385.5,146C 388.167,148 390.833,150 393.5,152C 397.167,154 400.833,154 404.5,152C 406.988,149.373 407.155,146.54 405,143.5C 402.629,140.794 399.963,138.461 397,136.5C 396.333,134.5 396.333,132.5 397,130.5C 401.517,129.077 405.851,127.077 410,124.5C 411.214,131.124 408.38,134.124 401.5,133.5C 401.786,136.93 403.62,139.264 407,140.5C 412.163,152.852 407.997,158.185 394.5,156.5C 394.248,160.611 393.748,164.611 393,168.5C 395.266,169.956 397.766,170.79 400.5,171C 402.953,175.786 406.453,179.619 411,182.5C 411.49,183.793 411.657,185.127 411.5,186.5C 408.058,186.968 405.391,185.802 403.5,183C 401.5,182.667 399.5,182.333 397.5,182C 396.449,180.615 395.116,179.615 393.5,179C 387.593,179.229 382.093,178.063 377,175.5C 375.457,173.911 375.457,172.577 377,171.5C 378.775,172.27 380.275,173.437 381.5,175C 383.473,175.495 385.473,175.662 387.5,175.5 Z"/></g>
<g><path style="opacity:1" fill="#f2aec1" d="M 334.5,138.5 C 335.497,138.47 336.164,138.97 336.5,140C 333.629,147.046 332.963,146.546 334.5,138.5 Z"/></g>
<g><path style="opacity:1" fill="#f8d0da" d="M 316.5,154.5 C 318.384,155.382 319.717,156.882 320.5,159C 319.258,159.311 318.258,158.811 317.5,157.5C 315.703,159.131 314.536,161.131 314,163.5C 313.13,162.892 312.63,162.059 312.5,161C 313.713,158.738 315.046,156.571 316.5,154.5 Z"/></g>
<g><path style="opacity:1" fill="#ea85a2" d="M 376.5,160.5 C 375.833,162.5 375.167,164.5 374.5,166.5C 374.187,163.753 374.52,161.086 375.5,158.5C 376.298,158.957 376.631,159.624 376.5,160.5 Z"/></g>
<g><path style="opacity:1" fill="#fdebe7" d="M 334.5,124.5 C 334.5,124.833 334.5,125.167 334.5,125.5C 324.859,131.642 317.026,139.642 311,149.5C 310.219,155.678 308.719,161.678 306.5,167.5C 304.635,171.043 301.968,173.876 298.5,176C 299.833,176.667 301.167,176.667 302.5,176C 304.959,173.554 307.292,171.054 309.5,168.5C 309.833,168.667 310.167,168.833 310.5,169C 308.884,173.208 306.218,176.541 302.5,179C 306.397,179.638 309.73,178.471 312.5,175.5C 313.308,175.808 313.975,176.308 314.5,177C 319.92,177.558 325.253,178.391 330.5,179.5C 330.344,176.934 330.678,174.434 331.5,172C 329.984,169.976 328.651,167.809 327.5,165.5C 330.443,165.466 333.443,165.133 336.5,164.5C 334.775,162.043 334.275,159.377 335,156.5C 335.973,158.392 336.64,160.392 337,162.5C 338.745,163.956 340.578,165.289 342.5,166.5C 340.246,169.9 338.746,173.567 338,177.5C 336.238,173.952 336.738,170.619 339.5,167.5C 338.5,166.167 337.5,166.167 336.5,167.5C 335.685,169.955 334.685,172.289 333.5,174.5C 333.685,175.584 334.018,176.584 334.5,177.5C 333.508,177.328 332.842,177.662 332.5,178.5C 331.756,180.453 330.256,181.453 328,181.5C 322.756,180.138 317.423,179.138 312,178.5C 305.668,183.306 300.501,182.473 296.5,176C 299.634,173.194 302.467,170.028 305,166.5C 307.251,147.096 317.085,133.096 334.5,124.5 Z"/></g>
<g><path style="opacity:1" fill="#f2a5b9" d="M 317.5,171.5 C 319.346,171.222 320.68,171.889 321.5,173.5C 319.167,174.941 317.834,174.275 317.5,171.5 Z"/></g>
<g><path style="opacity:1" fill="#ffe99a" d="M 331.5,167.5 C 332.5,167.5 333.5,167.5 334.5,167.5C 333.754,171.31 332.754,171.31 331.5,167.5 Z"/></g>
<g><path style="opacity:1" fill="#e9dce4" d="M 333.5,180.5 C 333.672,179.508 333.338,178.842 332.5,178.5C 332.842,177.662 333.508,177.328 334.5,177.5C 335.267,178.172 335.934,179.005 336.5,180C 340.685,180.758 344.685,182.091 348.5,184C 350.167,184.667 351.833,184.667 353.5,184C 356.079,181.085 358.746,178.251 361.5,175.5C 359.235,174.353 356.902,174.186 354.5,175C 353.571,177.391 352.071,179.225 350,180.5C 345.617,180.014 343.95,177.681 345,173.5C 349,171.5 352,168.5 354,164.5C 354.49,165.793 354.657,167.127 354.5,168.5C 360.842,168.666 367.175,168.5 373.5,168C 374.056,167.617 374.389,167.117 374.5,166.5C 375.167,164.5 375.833,162.5 376.5,160.5C 375.862,168.559 379.528,173.226 387.5,174.5C 387.5,174.833 387.5,175.167 387.5,175.5C 385.473,175.662 383.473,175.495 381.5,175C 380.275,173.437 378.775,172.27 377,171.5C 375.457,172.577 375.457,173.911 377,175.5C 382.093,178.063 387.593,179.229 393.5,179C 395.116,179.615 396.449,180.615 397.5,182C 399.5,182.333 401.5,182.667 403.5,183C 405.391,185.802 408.058,186.968 411.5,186.5C 411.657,185.127 411.49,183.793 411,182.5C 406.453,179.619 402.953,175.786 400.5,171C 397.766,170.79 395.266,169.956 393,168.5C 393.748,164.611 394.248,160.611 394.5,156.5C 407.997,158.185 412.163,152.852 407,140.5C 403.62,139.264 401.786,136.93 401.5,133.5C 408.38,134.124 411.214,131.124 410,124.5C 405.851,127.077 401.517,129.077 397,130.5C 396.333,132.5 396.333,134.5 397,136.5C 399.963,138.461 402.629,140.794 405,143.5C 407.155,146.54 406.988,149.373 404.5,152C 400.833,154 397.167,154 393.5,152C 390.833,150 388.167,148 385.5,146C 379.105,145.914 373.772,143.58 369.5,139C 366.356,137.308 363.023,136.142 359.5,135.5C 358.395,134.108 357.061,132.941 355.5,132C 350.349,131.09 345.682,129.09 341.5,126C 339.19,125.503 336.857,125.337 334.5,125.5C 334.5,125.167 334.5,124.833 334.5,124.5C 334.5,124.167 334.5,123.833 334.5,123.5C 336.857,123.337 339.19,123.503 341.5,124C 345.769,126.937 350.436,128.937 355.5,130C 360.049,133.309 365.049,135.642 370.5,137C 374.772,141.58 380.105,143.914 386.5,144C 389.983,147.985 394.316,150.485 399.5,151.5C 404.382,151.019 405.549,148.686 403,144.5C 400.961,142.126 398.628,140.126 396,138.5C 393.614,134.206 394.114,130.373 397.5,127C 402.403,126.131 406.903,124.297 411,121.5C 414.907,128.732 412.74,133.565 404.5,136C 411.435,140.55 413.268,146.717 410,154.5C 406.215,157.964 401.715,159.298 396.5,158.5C 396.538,161.181 395.871,163.681 394.5,166C 394.833,166.5 395.167,167 395.5,167.5C 397.444,168.189 399.444,168.689 401.5,169C 402.85,170.718 404.017,172.552 405,174.5C 407.064,173.409 409.231,173.242 411.5,174C 413.667,176.167 415.833,178.333 418,180.5C 418.769,183.099 418.602,185.599 417.5,188C 413.5,188.667 409.5,188.667 405.5,188C 403.248,185.113 400.248,183.78 396.5,184C 395.449,182.615 394.116,181.615 392.5,181C 386.945,181.013 381.612,180.013 376.5,178C 374.983,175.796 373.65,173.462 372.5,171C 365.5,170.333 358.5,170.333 351.5,171C 349.792,172.51 348.126,174.01 346.5,175.5C 346.887,176.72 347.72,177.387 349,177.5C 350.82,176.396 352.32,174.896 353.5,173C 356.76,172.216 359.927,172.383 363,173.5C 363.738,176.212 363.071,178.545 361,180.5C 359.644,181.38 358.144,181.714 356.5,181.5C 356.436,185.062 354.603,186.729 351,186.5C 345.026,184.637 339.192,182.637 333.5,180.5 Z"/></g>
<g><path style="opacity:1" fill="#d72751" d="M 407.5,175.5 C 409.912,175.244 411.579,176.244 412.5,178.5C 409.688,179.719 408.021,178.719 407.5,175.5 Z"/></g>
<g><path style="opacity:1" fill="#ee9bb2" d="M 387.5,175.5 C 387.5,175.167 387.5,174.833 387.5,174.5C 389.857,174.337 392.19,174.503 394.5,175C 397.808,175.673 399.642,177.506 400,180.5C 396.602,176.977 392.436,175.311 387.5,175.5 Z"/></g>
<g><path style="opacity:1" fill="#efe1e6" d="M 257.5,123.5 C 268.476,129.644 276.976,138.31 283,149.5C 283.375,160.255 287.542,169.088 295.5,176C 294.235,177.656 292.901,179.323 291.5,181C 290.333,181.167 289.167,181.333 288,181.5C 284.778,181.05 281.778,180.05 279,178.5C 273.919,179.13 268.919,180.13 264,181.5C 261.849,181.357 260.182,180.357 259,178.5C 258.536,179.094 258.369,179.761 258.5,180.5C 253.448,181.915 248.448,183.749 243.5,186C 239.202,187.46 236.202,186.126 234.5,182C 231.768,181.602 229.935,180.102 229,177.5C 228.333,176.167 228.333,174.833 229,173.5C 231.737,172.39 234.571,172.223 237.5,173C 239.054,174.892 240.888,176.392 243,177.5C 245.341,176.993 245.841,175.826 244.5,174C 242.998,173.417 241.665,172.584 240.5,171.5C 233.524,170.336 226.524,170.169 219.5,171C 218.283,172.648 217.45,174.481 217,176.5C 211.369,179.937 205.202,181.437 198.5,181C 196.124,183.68 193.124,185.013 189.5,185C 188.5,186 187.5,187 186.5,188C 182.5,188.667 178.5,188.667 174.5,188C 173.378,184.582 173.711,181.249 175.5,178C 177.455,177.047 179.122,175.713 180.5,174C 182.769,173.242 184.936,173.409 187,174.5C 187.983,172.552 189.15,170.718 190.5,169C 192.556,168.689 194.556,168.189 196.5,167.5C 196.833,167 197.167,166.5 197.5,166C 196.521,163.567 195.855,161.067 195.5,158.5C 184.031,159.865 179.198,154.865 181,143.5C 182.36,140.265 184.527,137.765 187.5,136C 180.103,134.311 177.436,129.811 179.5,122.5C 180.167,122.167 180.833,121.833 181.5,121.5C 186.309,124.95 191.475,127.617 197,129.5C 197.79,132.634 197.457,135.634 196,138.5C 192.278,140.721 189.444,143.721 187.5,147.5C 187.899,150.065 189.399,151.399 192,151.5C 197.676,150.08 202.509,147.246 206.5,143C 212.678,143.773 217.678,141.773 221.5,137C 224.644,135.308 227.977,134.142 231.5,133.5C 233.283,131.768 235.283,130.268 237.5,129C 241.928,128.303 245.928,126.637 249.5,124C 252.146,123.503 254.813,123.336 257.5,123.5 Z"/></g>
<g><path style="opacity:1" fill="#d72650" d="M 181.5,175.5 C 185.208,176.551 185.041,177.884 181,179.5C 180.5,179.167 180,178.833 179.5,178.5C 180.193,177.482 180.859,176.482 181.5,175.5 Z"/></g>
<g><path style="opacity:1" fill="#d31242" d="M 217.5,166.5 C 217.813,163.753 217.48,161.086 216.5,158.5C 215.702,158.957 215.369,159.624 215.5,160.5C 216.143,168.545 212.476,173.212 204.5,174.5C 198.84,173.831 194.173,175.664 190.5,180C 193.055,178.862 195.722,177.529 198.5,176C 200.473,175.505 202.473,175.338 204.5,175.5C 206.527,175.662 208.527,175.495 210.5,175C 211.953,172.295 213.953,171.461 216.5,172.5C 214.972,175.275 212.639,177.108 209.5,178C 205.833,178.333 202.167,178.667 198.5,179C 196.884,179.615 195.551,180.615 194.5,182C 190.752,181.78 187.752,183.113 185.5,186C 183.866,186.494 182.199,186.66 180.5,186.5C 180.343,185.127 180.51,183.793 181,182.5C 185.382,179.785 188.715,176.118 191,171.5C 194.779,171.328 197.612,169.661 199.5,166.5C 198.205,163.284 197.538,159.951 197.5,156.5C 184.003,158.185 179.837,152.852 185,140.5C 187.333,138.994 189.5,137.327 191.5,135.5C 191.291,134.914 190.957,134.414 190.5,134C 183.711,134.216 180.877,131.05 182,124.5C 186.107,127.087 190.441,129.087 195,130.5C 195.667,132.5 195.667,134.5 195,136.5C 190.33,139.163 187.164,142.996 185.5,148C 186.135,151.634 188.302,153.468 192,153.5C 198.099,152.367 203.265,149.534 207.5,145C 210.167,144.667 212.833,144.333 215.5,144C 222.847,138.954 230.514,134.62 238.5,131C 242.928,130.303 246.928,128.637 250.5,126C 254.909,125.195 258.909,126.195 262.5,129C 270.09,134.588 276.256,141.421 281,149.5C 281.61,159.828 285.443,168.661 292.5,176C 291.5,176.667 290.5,176.667 289.5,176C 287.041,173.554 284.708,171.054 282.5,168.5C 282.167,168.667 281.833,168.833 281.5,169C 283.116,173.208 285.782,176.541 289.5,179C 285.497,179.835 282.164,178.669 279.5,175.5C 278.692,175.808 278.025,176.308 277.5,177C 272.049,177.363 266.716,178.196 261.5,179.5C 261.656,176.934 261.322,174.434 260.5,172C 262.016,169.976 263.349,167.809 264.5,165.5C 261.482,165.047 258.482,164.713 255.5,164.5C 257.395,162.133 257.895,159.466 257,156.5C 256.333,158.5 255.667,160.5 255,162.5C 253.054,163.747 251.22,165.08 249.5,166.5C 250.414,168.664 251.581,170.664 253,172.5C 253.078,174.657 253.245,176.657 253.5,178.5C 256.027,174.686 255.694,171.019 252.5,167.5C 253.5,166.167 254.5,166.167 255.5,167.5C 257.236,170.343 258.07,173.343 258,176.5C 257.044,177.579 256.211,178.745 255.5,180C 251.232,180.534 247.232,181.867 243.5,184C 241.833,184.667 240.167,184.667 238.5,184C 235.921,181.085 233.254,178.251 230.5,175.5C 232.765,174.353 235.098,174.186 237.5,175C 240.244,181.964 243.577,182.297 247.5,176C 246.885,172.718 244.885,170.718 241.5,170C 240.458,168.082 239.292,166.249 238,164.5C 237.51,165.793 237.343,167.127 237.5,168.5C 231.158,168.666 224.825,168.5 218.5,168C 217.944,167.617 217.611,167.117 217.5,166.5 Z"/></g>
<g><path style="opacity:1" fill="#ed96ae" d="M 204.5,174.5 C 204.5,174.833 204.5,175.167 204.5,175.5C 202.473,175.338 200.473,175.505 198.5,176C 195.722,177.529 193.055,178.862 190.5,180C 194.173,175.664 198.84,173.831 204.5,174.5 Z"/></g>
<g><path style="opacity:1" fill="#f2a9bc" d="M 271.5,171.5 C 273.355,171.272 274.188,171.939 274,173.5C 271.192,174.86 270.359,174.193 271.5,171.5 Z"/></g>
<g><path style="opacity:1" fill="#ffdf69" d="M 260.5,166.5 C 261.774,167.189 261.774,168.023 260.5,169C 259.365,169.749 258.365,169.583 257.5,168.5C 258.602,167.824 259.602,167.158 260.5,166.5 Z"/></g>
<g><path style="opacity:1" fill="#ea87a3" d="M 217.5,166.5 C 216.833,164.5 216.167,162.5 215.5,160.5C 215.369,159.624 215.702,158.957 216.5,158.5C 217.48,161.086 217.813,163.753 217.5,166.5 Z"/></g>
<g><path style="opacity:1" fill="#f9d7e0" d="M 273.5,154.5 C 277.622,156.077 279.122,159.077 278,163.5C 277.482,160.977 276.148,158.977 274,157.5C 273.667,157.833 273.333,158.167 273,158.5C 272.805,157.181 272.972,155.847 273.5,154.5 Z"/></g>
<g><path style="opacity:1" fill="#f3b1c3" d="M 255.5,138.5 C 258.254,140.053 259.087,142.386 258,145.5C 256.477,143.431 255.643,141.097 255.5,138.5 Z"/></g>
<g><path style="opacity:1" fill="#d93054" d="M 413.5,179.5 C 415.536,181.206 416.536,183.539 416.5,186.5C 415.5,186.5 414.5,186.5 413.5,186.5C 412.562,184.09 412.562,181.756 413.5,179.5 Z"/></g>
<g><path style="opacity:1" fill="#d93054" d="M 176.5,179.5 C 178.252,179.418 179.252,180.251 179.5,182C 178.852,183.44 178.519,184.94 178.5,186.5C 177.5,186.5 176.5,186.5 175.5,186.5C 175.993,184.194 176.326,181.861 176.5,179.5 Z"/></g>
<g><path style="opacity:1" fill="#a38e28" d="M 278.5,195.5 C 281.152,195.41 283.485,196.076 285.5,197.5C 282.848,197.59 280.515,196.924 278.5,195.5 Z"/></g>
<g><path style="opacity:1" fill="#364146" d="M 307.5,197.5 C 304.474,199.019 301.141,199.685 297.5,199.5C 294.975,199.497 292.641,199.163 290.5,198.5C 296.203,198.625 301.87,198.292 307.5,197.5 Z"/></g>
<g><path style="opacity:1" fill="#f6f0f3" d="M 273.5,237.5 C 274.493,228.682 274.827,219.682 274.5,210.5C 280.5,210.5 286.5,210.5 292.5,210.5C 292.5,234.833 292.5,259.167 292.5,283.5C 285.276,283.364 278.276,283.364 271.5,283.5C 258.768,287.048 249.268,283.048 243,271.5C 238.8,278.701 232.633,283.201 224.5,285C 198.85,284.611 173.183,284.445 147.5,284.5C 147.5,259.833 147.5,235.167 147.5,210.5C 155.84,210.334 164.173,210.5 172.5,211C 193.348,213.82 201.515,225.653 197,246.5C 208.293,234.139 221.126,232.305 235.5,241C 238.491,243.99 240.657,247.49 242,251.5C 248.354,237.405 258.854,232.738 273.5,237.5 Z"/></g>
<g><path style="opacity:1" fill="#acb7c7" d="M 271.5,283.5 C 278.276,283.364 285.276,283.364 292.5,283.5C 292.5,259.167 292.5,234.833 292.5,210.5C 286.5,210.5 280.5,210.5 274.5,210.5C 274.827,219.682 274.493,228.682 273.5,237.5C 273.5,228.167 273.5,218.833 273.5,209.5C 280.167,209.5 286.833,209.5 293.5,209.5C 293.5,234.5 293.5,259.5 293.5,284.5C 286.11,284.764 278.777,284.43 271.5,283.5 Z"/></g>
<g><path style="opacity:1" fill="#f9f0f4" d="M 444.5,210.5 C 444.5,235.167 444.5,259.833 444.5,284.5C 420.399,284.177 396.399,284.677 372.5,286C 364.865,284.196 359.532,279.696 356.5,272.5C 351.854,279.159 345.52,282.826 337.5,283.5C 326.5,283.5 315.5,283.5 304.5,283.5C 304.5,259.833 304.5,236.167 304.5,212.5C 315.172,212.333 325.839,212.5 336.5,213C 349.23,216.284 354.563,224.451 352.5,237.5C 369.659,238.497 386.992,238.83 404.5,238.5C 404.5,229.167 404.5,219.833 404.5,210.5C 417.833,210.5 431.167,210.5 444.5,210.5 Z"/></g>
<g><path style="opacity:1" fill="#d41642" d="M 277.5,212.5 C 281.833,212.5 286.167,212.5 290.5,212.5C 290.5,235.167 290.5,257.833 290.5,280.5C 286.167,280.5 281.833,280.5 277.5,280.5C 277.605,275.846 276.271,275.346 273.5,279C 255.509,284.7 245.842,278.033 244.5,259C 245.062,247.105 251.229,240.272 263,238.5C 267.417,239.139 271.583,240.473 275.5,242.5C 275.56,243.043 275.893,243.376 276.5,243.5C 277.499,233.188 277.832,222.855 277.5,212.5 Z"/></g>
<g><path style="opacity:1" fill="#657a97" d="M 304.5,212.5 C 304.5,236.167 304.5,259.833 304.5,283.5C 315.5,283.5 326.5,283.5 337.5,283.5C 326.346,284.495 315.012,284.828 303.5,284.5C 303.169,260.328 303.502,236.328 304.5,212.5 Z"/></g>
<g><path style="opacity:1" fill="#d2023c" d="M 407.5,212.5 C 411.5,212.5 415.5,212.5 419.5,212.5C 419.5,235.167 419.5,257.833 419.5,280.5C 415.5,280.5 411.5,280.5 407.5,280.5C 407.5,257.833 407.5,235.167 407.5,212.5 Z"/></g>
<g><path style="opacity:1" fill="#d30a3f" d="M 196.5,279.5 C 191.695,280.487 186.695,280.821 181.5,280.5C 177.162,273.984 172.995,267.317 169,260.5C 168.501,255.177 168.334,249.844 168.5,244.5C 177.498,244.671 181.331,240.338 180,231.5C 178.362,229.266 176.195,227.933 173.5,227.5C 170.375,226.521 167.042,226.187 163.5,226.5C 163.5,244.5 163.5,262.5 163.5,280.5C 159.167,280.5 154.833,280.5 150.5,280.5C 150.5,258.5 150.5,236.5 150.5,214.5C 159.173,214.334 167.84,214.5 176.5,215C 192.577,218.984 197.744,228.817 192,244.5C 189.158,249.51 184.992,252.844 179.5,254.5C 185.424,262.689 191.091,271.022 196.5,279.5 Z"/></g>
<g><path style="opacity:1" fill="#f2b4c6" d="M 277.5,212.5 C 277.832,222.855 277.499,233.188 276.5,243.5C 275.893,243.376 275.56,243.043 275.5,242.5C 276.167,232.5 276.833,222.5 277.5,212.5 Z"/></g>
<g><path style="opacity:1" fill="#de446e" d="M 440.5,280.5 C 440.5,258.167 440.5,235.833 440.5,213.5C 436.833,213.5 433.167,213.5 429.5,213.5C 429.5,235.833 429.5,258.167 429.5,280.5C 428.503,258.006 428.169,235.339 428.5,212.5C 432.833,212.5 437.167,212.5 441.5,212.5C 441.831,235.339 441.497,258.006 440.5,280.5 Z"/></g>
<g><path style="opacity:1" fill="#d2003b" d="M 440.5,280.5 C 436.833,280.5 433.167,280.5 429.5,280.5C 429.5,258.167 429.5,235.833 429.5,213.5C 433.167,213.5 436.833,213.5 440.5,213.5C 440.5,235.833 440.5,258.167 440.5,280.5 Z"/></g>
<g><path style="opacity:1" fill="#d30b3f" d="M 307.5,215.5 C 317.172,215.334 326.839,215.5 336.5,216C 347.228,219.284 351.395,226.451 349,237.5C 347.999,240.173 346.499,242.507 344.5,244.5C 356.125,252.343 358.292,262.343 351,274.5C 348.749,276.377 346.249,277.877 343.5,279C 331.562,280.415 319.562,280.915 307.5,280.5C 307.5,258.833 307.5,237.167 307.5,215.5 Z"/></g>
<g><path style="opacity:1" fill="#ec91ab" d="M 173.5,227.5 C 170.5,227.5 167.5,227.5 164.5,227.5C 164.83,245.341 164.497,263.008 163.5,280.5C 163.5,262.5 163.5,244.5 163.5,226.5C 167.042,226.187 170.375,226.521 173.5,227.5 Z"/></g>
<g><path style="opacity:1" fill="#fefbfc" d="M 330.5,227.5 C 333.87,228.031 335.537,230.031 335.5,233.5C 335.95,236.941 334.617,239.275 331.5,240.5C 329.167,240.5 326.833,240.5 324.5,240.5C 324.183,244.702 324.517,248.702 325.5,252.5C 329.967,252.133 334.3,252.633 338.5,254C 343.34,260.621 342.006,265.621 334.5,269C 330.179,269.499 325.846,269.666 321.5,269.5C 321.5,255.5 321.5,241.5 321.5,227.5C 324.5,227.5 327.5,227.5 330.5,227.5 Z"/></g>
<g><path style="opacity:1" fill="#f4bdcc" d="M 330.5,227.5 C 327.5,227.5 324.5,227.5 321.5,227.5C 321.5,241.5 321.5,255.5 321.5,269.5C 320.504,255.343 320.171,241.01 320.5,226.5C 324.042,226.187 327.375,226.521 330.5,227.5 Z"/></g>
<g><path style="opacity:1" fill="#c3cad6" d="M 444.5,210.5 C 431.167,210.5 417.833,210.5 404.5,210.5C 404.5,219.833 404.5,229.167 404.5,238.5C 386.992,238.83 369.659,238.497 352.5,237.5C 369.5,237.5 386.5,237.5 403.5,237.5C 403.5,228.167 403.5,218.833 403.5,209.5C 417.344,209.171 431.01,209.504 444.5,210.5 Z"/></g>
<g><path style="opacity:1" fill="#d41643" d="M 214.5,238.5 C 231.901,237.901 240.234,246.234 239.5,263.5C 229.833,263.5 220.167,263.5 210.5,263.5C 211.874,270.022 215.874,272.855 222.5,272C 224.677,270.485 226.844,268.985 229,267.5C 232.388,268.777 235.555,270.444 238.5,272.5C 227.87,284.141 216.037,285.474 203,276.5C 195.505,265.471 195.672,254.638 203.5,244C 206.99,241.588 210.657,239.755 214.5,238.5 Z"/></g>
<g><path style="opacity:1" fill="#e97c9a" d="M 331.5,240.5 C 329.735,241.461 327.735,241.795 325.5,241.5C 325.5,245.167 325.5,248.833 325.5,252.5C 324.517,248.702 324.183,244.702 324.5,240.5C 326.833,240.5 329.167,240.5 331.5,240.5 Z"/></g>
<g><path style="opacity:1" fill="#e56c8e" d="M 371.5,241.5 C 367.5,241.5 363.5,241.5 359.5,241.5C 359.5,250.167 359.5,258.833 359.5,267.5C 358.507,258.682 358.173,249.682 358.5,240.5C 363.032,240.182 367.366,240.515 371.5,241.5 Z"/></g>
<g><path style="opacity:1" fill="#d2073e" d="M 371.5,241.5 C 371.334,249.507 371.5,257.507 372,265.5C 373.504,271.057 377.004,272.89 382.5,271C 384.439,269.568 385.772,267.735 386.5,265.5C 387.492,257.684 387.826,249.684 387.5,241.5C 391.5,241.5 395.5,241.5 399.5,241.5C 399.666,250.839 399.5,260.173 399,269.5C 397.601,275.9 393.767,280.066 387.5,282C 381.833,282.667 376.167,282.667 370.5,282C 363.947,279.289 360.28,274.455 359.5,267.5C 359.5,258.833 359.5,250.167 359.5,241.5C 363.5,241.5 367.5,241.5 371.5,241.5 Z"/></g>
<g><path style="opacity:1" fill="#e04b71" d="M 399.5,241.5 C 395.5,241.5 391.5,241.5 387.5,241.5C 387.826,249.684 387.492,257.684 386.5,265.5C 386.5,257.167 386.5,248.833 386.5,240.5C 391.032,240.182 395.366,240.515 399.5,241.5 Z"/></g>
<g><path style="opacity:1" fill="#fdf6f8" d="M 214.5,248.5 C 217.978,248.184 221.312,248.684 224.5,250C 225.861,251.584 226.528,253.418 226.5,255.5C 221.5,255.5 216.5,255.5 211.5,255.5C 211.15,252.547 212.15,250.213 214.5,248.5 Z"/></g>
<g><path style="opacity:1" fill="#fef6f8" d="M 264.5,249.5 C 275.053,249.218 279.22,254.218 277,264.5C 274.081,270.025 269.581,271.858 263.5,270C 258.847,266.212 257.347,261.378 259,255.5C 260.36,252.977 262.193,250.977 264.5,249.5 Z"/></g>
<g><path style="opacity:1" fill="#f1b0c3" d="M 196.5,279.5 C 197.043,279.56 197.376,279.893 197.5,280.5C 192.014,281.815 186.68,281.815 181.5,280.5C 186.695,280.821 191.695,280.487 196.5,279.5 Z"/></g>
<g><path style="opacity:1" fill="#fefefe" d="M 71.5,322.5 C 137.5,322.5 203.5,322.5 269.5,322.5C 269.833,466.334 269.5,610.001 268.5,753.5C 202.778,714.221 137.278,674.555 72,634.5C 71.5,530.501 71.3333,426.501 71.5,322.5 Z"/></g>
<g><path style="opacity:1" fill="#8b9cb1" d="M 71.5,322.5 C 137.665,321.501 203.998,321.168 270.5,321.5C 270.833,465.835 270.5,610.168 269.5,754.5C 268.893,754.376 268.56,754.043 268.5,753.5C 269.5,610.001 269.833,466.334 269.5,322.5C 203.5,322.5 137.5,322.5 71.5,322.5 Z"/></g>
<g><path style="opacity:1" fill="#fefefe" d="M 520.5,322.5 C 520.5,360.5 520.5,398.5 520.5,436.5C 503.167,436.5 485.833,436.5 468.5,436.5C 468.831,415.66 468.497,394.993 467.5,374.5C 436.5,374.5 405.5,374.5 374.5,374.5C 374.167,470.237 374.5,565.237 375.5,659.5C 406.055,641.304 436.555,622.97 467,604.5C 467.5,583.836 467.667,563.169 467.5,542.5C 452.342,541.504 437.009,541.17 421.5,541.5C 421.5,524.167 421.5,506.833 421.5,489.5C 454.5,489.5 487.5,489.5 520.5,489.5C 520.667,537.834 520.5,586.168 520,634.5C 454.389,674.052 388.889,713.719 323.5,753.5C 322.5,610.001 322.167,466.334 322.5,322.5C 388.5,322.5 454.5,322.5 520.5,322.5 Z"/></g>
<g><path style="opacity:1" fill="#8d9db3" d="M 520.5,322.5 C 454.5,322.5 388.5,322.5 322.5,322.5C 322.167,466.334 322.5,610.001 323.5,753.5C 323.44,754.043 323.107,754.376 322.5,754.5C 321.5,610.168 321.167,465.835 321.5,321.5C 388.002,321.168 454.335,321.501 520.5,322.5 Z"/></g>
<g><path style="opacity:1" fill="#022554" d="M 214.5,658.5 C 184.5,640.5 154.5,622.5 124.5,604.5C 124.5,528.167 124.5,451.833 124.5,375.5C 155.167,375.5 185.833,375.5 216.5,375.5C 217.164,470.173 216.498,564.506 214.5,658.5 Z"/></g>
<g><path style="opacity:1" fill="#506788" d="M 214.5,658.5 C 216.498,564.506 217.164,470.173 216.5,375.5C 185.833,375.5 155.167,375.5 124.5,375.5C 124.5,451.833 124.5,528.167 124.5,604.5C 123.501,528.002 123.167,451.335 123.5,374.5C 154.833,374.5 186.167,374.5 217.5,374.5C 217.833,469.836 217.5,565.169 216.5,660.5C 215.478,660.145 214.811,659.478 214.5,658.5 Z"/></g>
<g><path style="opacity:1" fill="#395479" d="M 467.5,374.5 C 467.5,374.833 467.5,375.167 467.5,375.5C 436.833,375.5 406.167,375.5 375.5,375.5C 375.5,470.167 375.5,564.833 375.5,659.5C 374.5,565.237 374.167,470.237 374.5,374.5C 405.5,374.5 436.5,374.5 467.5,374.5 Z"/></g>
<g><path style="opacity:1" fill="#8192a9" d="M 467.5,374.5 C 468.497,394.993 468.831,415.66 468.5,436.5C 485.833,436.5 503.167,436.5 520.5,436.5C 503.008,437.497 485.341,437.83 467.5,437.5C 467.5,416.833 467.5,396.167 467.5,375.5C 467.5,375.167 467.5,374.833 467.5,374.5 Z"/></g>
<g><path style="opacity:1" fill="#8999af" d="M 421.5,489.5 C 421.5,506.833 421.5,524.167 421.5,541.5C 437.009,541.17 452.342,541.504 467.5,542.5C 451.833,542.5 436.167,542.5 420.5,542.5C 420.17,524.659 420.503,506.992 421.5,489.5 Z"/></g>
</svg>
